<?xml version="1.0" encoding="utf-8"?>
<!-- Generator: Adobe Illustrator 24.1.1, SVG Export Plug-In . SVG Version: 6.00 Build 0)  -->
<svg version="1.1" id="Layer_1" xmlns="http://www.w3.org/2000/svg" xmlns:xlink="http://www.w3.org/1999/xlink" x="0px" y="0px"
	 viewBox="0 0 512 512" style="enable-background:new 0 0 512 512;" xml:space="preserve">
<g>
	<path d="M148.5,312.3h179.2c0.7,0,1.7-0.3,3.1-1h2v47.1c0,13.7-4.9,25.6-14.8,35.8c-9.9,10.2-22,15.4-36.4,15.4h-128l-76.8,76.8
		v-76.8H51.2c-13.7,0-25.6-5.1-35.8-15.4C5.1,384,0,372.1,0,358.4V204.8c0-14.3,5.1-26.5,15.4-36.4s22.2-14.8,35.8-14.8h97.3V312.3
		 M460.8,25.6c14.3,0,26.5,4.9,36.4,14.8s14.8,22,14.8,36.4v153.6c0,13.7-4.9,25.6-14.8,35.8c-9.9,10.2-22,15.4-36.4,15.4h-25.6
		v76.8l-76.8-76.8H179.2V76.8c0-14.3,5.1-26.5,15.4-36.4c10.2-9.9,22.2-14.8,35.8-14.8H460.8"/>
</g>
</svg>
